# xmcd CD database file
#
# Track frame offsets:
#	150
#	13262
#	31225
#	49462
#	68500
#	77687
#	88675
#	102000
#	115875
#	132262
#	142887
#	153612
#	165012
#	177787
#	189612
#	201200
#	218450
#	230637
#	248637
#	261800
#	278362
#	288912
#	302400
#	311875
#
# Disc length: 4392 seconds
#
# Revision: 2
# Processed by: cddbd v1.5.2PL0 Copyright (c) Steve Scherf et al.
# Submitted via: CDex 1.70beta2
#
DISCID=3e112618
DTITLE=Cash Johnny - Heroes and Friends Volume 2
DYEAR=1900
DGENRE=Country
TTITLE0=Steel Guitar Rag
TTITLE1=I Will Dance With You (w. Karen Brooks)
TTITLE2=Thoughts On The Flag (w. Tommy Cash, George Jones and Tom T. Hall)
TTITLE3=In Your Mind
TTITLE4=Where The Soul Never Dies (w. and The Cluster Pluckers )
TTITLE5=Little Bit Of Yesterday
TTITLE6=Hey Porter (w. Marty Stuart(
TTITLE7=Song To Woody (w. Earl Scruggs, Jack Elliott and New Riders Of The Purple Sage)
TTITLE8=Six Gun Shooting
TTITLE9=Go On, Blues
TTITLE10=That´s How I Got To Memphis (w. Rosanna Cash)
TTITLE11=He Touched Me
TTITLE12=Blistered (w. Jimmy Tittle and Marty Stuart)
TTITLE13=Let America Be America Again (w. Willie Nelson, Waylon Jennings and Jessi Colter)
TTITLE14=My Ship Will Sail (w. The Carter Family)
TTITLE15=They Killed Him
TTITLE16=The General Lee
TTITLE17=Folsom Prison Blues (w. Brooks And Dunn)
TTITLE18=I Still Miss Someone (w. Bill Monroe)
TTITLE19=Girl From The North Country (w. Bob Dylan)
TTITLE20=I Will Rock´n Roll With You (w. Tom Astor)
TTITLE21=Veteran´s Day
TTITLE22=Jordan (w. Emmylou Harris)
TTITLE23=A Front Row Seat To Hear Ole Johnny Sing (w. Shel Silverstein)
EXTD=
EXTT0=
EXTT1=
EXTT2=
EXTT3=
EXTT4=
EXTT5=
EXTT6=
EXTT7=
EXTT8=
EXTT9=
EXTT10=
EXTT11=
EXTT12=
EXTT13=
EXTT14=
EXTT15=
EXTT16=
EXTT17=
EXTT18=
EXTT19=
EXTT20=
EXTT21=
EXTT22=
EXTT23=
PLAYORDER=
